# WaveFront *.obj file (generated by Autodesk ATF)

mtllib 3d6e8ef3-070c-4ba1-aa83-be7a9bb84a70.mtl

g Body1

v 1.050000 -0.850000 -2.200000
v 1.050000 -0.850000 -2.300000
v 1.050000 -1.750000 -2.300000
v 1.050000 -1.750000 -2.200000
v 0.950000 -0.850000 -2.300000
v 0.950000 -1.750000 -2.300000
v 0.950000 -1.750000 -2.500000
v 1.250000 -1.750000 -2.500000
v 1.250000 -1.750000 -2.200000
v -1.050000 -0.850000 2.200000
v -1.050000 -0.850000 2.300000
v -1.050000 -1.750000 2.300000
v -1.050000 -1.750000 2.200000
v -0.950000 -0.850000 2.300000
v -0.950000 -1.750000 2.300000
v -0.950000 -1.750000 2.500000
v -1.250000 -1.750000 2.500000
v -1.250000 -1.750000 2.200000
v -0.950000 -0.850000 -2.300000
v -1.050000 -0.850000 -2.300000
v -1.050000 -1.750000 -2.300000
v -0.950000 -1.750000 -2.300000
v -1.050000 -0.850000 -2.200000
v -1.050000 -1.750000 -2.200000
v -1.250000 -1.750000 -2.200000
v -1.250000 -1.750000 -2.500000
v -0.950000 -1.750000 -2.500000
v 0.950000 -0.850000 2.300000
v 1.050000 -0.850000 2.300000
v 1.050000 -1.750000 2.300000
v 0.950000 -1.750000 2.300000
v 1.050000 -0.850000 2.200000
v 1.050000 -1.750000 2.200000
v 1.250000 -1.750000 2.200000
v 1.250000 -1.750000 2.500000
v 0.950000 -1.750000 2.500000
v -0.950000 -0.750000 2.300000
v 0.950000 -0.750000 2.300000
v 1.050000 -0.750000 -2.200000
v 1.050000 -0.750000 2.200000
v 0.950000 -0.750000 2.200000
v 0.950000 -0.750000 -2.200000
v 0.950000 -0.750000 -2.300000
v -0.950000 -0.750000 -2.300000
v -0.950000 -0.750000 -2.200000
v -1.050000 -0.750000 -2.200000
v -1.050000 -0.750000 2.200000
v -0.950000 -0.750000 2.200000
v 0.950000 -0.250000 2.500000
v 0.950000 -0.250000 2.200000
v 1.250000 -0.250000 2.200000
v -0.950000 -0.250000 2.500000
v -0.950000 -0.250000 2.200000
v -1.250000 -0.250000 2.200000
v -1.250000 -0.250000 -2.200000
v -0.950000 -0.250000 -2.200000
v -0.950000 -0.250000 -2.500000
v 0.950000 -0.250000 -2.500000
v 0.950000 -0.250000 -2.200000
v 1.250000 -0.250000 -2.200000
v 1.250000 0.000000 -2.500000
v 1.250000 0.000000 2.500000
v -1.250000 -0.000000 -2.500000
v -1.250000 -0.000000 2.500000
vt 0.000000 0.254000 0.000000
vt 0.254000 0.254000 0.000000
vt 0.000000 2.540000 0.000000
vt 0.254000 2.540000 0.000000
vt 0.000000 0.254000 0.000000
vt 0.254000 0.254000 0.000000
vt -0.000000 2.540000 0.000000
vt 0.254000 2.540000 0.000000
vt 0.127000 0.381000 0.000000
vt -0.381000 0.381000 0.000000
vt 0.127000 0.127000 0.000000
vt -0.381000 -0.381000 0.000000
vt 0.381000 -0.381000 0.000000
vt 0.381000 0.127000 0.000000
vt 0.000000 0.254000 0.000000
vt 0.254000 0.254000 0.000000
vt 0.000000 2.540000 0.000000
vt 0.254000 2.540000 0.000000
vt -0.000000 0.254000 0.000000
vt 0.254000 0.254000 0.000000
vt 0.000000 2.540000 0.000000
vt 0.254000 2.540000 0.000000
vt -0.127000 -0.381000 0.000000
vt 0.381000 -0.381000 0.000000
vt -0.127000 -0.127000 0.000000
vt 0.381000 0.381000 0.000000
vt -0.381000 0.381000 0.000000
vt -0.381000 -0.127000 0.000000
vt 0.000000 0.254000 0.000000
vt 0.254000 0.254000 0.000000
vt -0.000000 2.540000 0.000000
vt 0.254000 2.540000 0.000000
vt 0.000000 0.254000 0.000000
vt 0.254000 0.254000 0.000000
vt 0.000000 2.540000 0.000000
vt 0.254000 2.540000 0.000000
vt 0.381000 -0.127000 0.000000
vt 0.381000 0.381000 0.000000
vt 0.127000 -0.127000 0.000000
vt -0.381000 0.381000 0.000000
vt -0.381000 -0.381000 0.000000
vt 0.127000 -0.381000 0.000000
vt -0.000000 0.254000 0.000000
vt 0.254000 0.254000 0.000000
vt 0.000000 2.540000 0.000000
vt 0.254000 2.540000 0.000000
vt 0.000000 0.254000 0.000000
vt 0.254000 0.254000 0.000000
vt 0.000000 2.540000 0.000000
vt 0.254000 2.540000 0.000000
vt -0.127000 0.381000 0.000000
vt -0.127000 0.127000 0.000000
vt 0.381000 0.381000 0.000000
vt 0.381000 -0.381000 0.000000
vt -0.381000 -0.381000 0.000000
vt -0.381000 0.127000 0.000000
vt 5.080000 0.254000 0.000000
vt 0.254000 0.254000 0.000000
vt 5.080000 0.000000 0.000000
vt 0.254000 -0.000000 0.000000
vt 0.254000 0.000000 0.000000
vt 11.430000 0.000000 0.000000
vt 0.254000 0.254000 0.000000
vt 11.430000 0.254000 0.000000
vt 2.413000 5.842000 0.000000
vt -2.413000 5.842000 0.000000
vt 2.413000 5.588000 0.000000
vt -2.413000 5.588000 0.000000
vt 2.413000 -5.588000 0.000000
vt -2.413000 -5.588000 0.000000
vt 2.413000 -5.842000 0.000000
vt -2.413000 -5.842000 0.000000
vt -2.667000 5.588000 0.000000
vt -2.667000 -5.588000 0.000000
vt 2.667000 -5.588000 0.000000
vt 2.667000 5.588000 0.000000
vt 5.080000 0.254000 0.000000
vt 0.254000 0.254000 0.000000
vt 5.080000 -0.000000 0.000000
vt 0.254000 0.000000 0.000000
vt 0.254000 0.000000 0.000000
vt 11.430000 0.000000 0.000000
vt 0.254000 0.254000 0.000000
vt 11.430000 0.254000 0.000000
vt 5.842000 -2.667000 0.000000
vt 5.842000 -2.413000 0.000000
vt 5.588000 -2.667000 0.000000
vt -5.588000 -2.667000 0.000000
vt -5.842000 -2.413000 0.000000
vt -5.842000 -2.667000 0.000000
vt -5.842000 2.413000 0.000000
vt 5.842000 2.413000 0.000000
vt -5.588000 2.667000 0.000000
vt 5.588000 2.667000 0.000000
vt 5.842000 2.667000 0.000000
vt -5.842000 2.667000 0.000000
vt 0.762000 0.000000 0.000000
vt 0.508000 1.270000 0.000000
vt 0.000000 0.000000 0.000000
vt 0.508000 1.524000 0.000000
vt -0.000000 3.810000 0.000000
vt 0.508000 3.810000 0.000000
vt 0.762000 1.270000 0.000000
vt -0.000000 1.270000 0.000000
vt 0.000000 0.000000 0.000000
vt 0.254000 1.270000 0.000000
vt 0.762000 -0.000000 0.000000
vt 0.254000 1.524000 0.000000
vt 0.762000 3.810000 0.000000
vt 0.254000 3.810000 0.000000
vt -5.588000 -3.175000 0.000000
vt 5.588000 -3.175000 0.000000
vt -5.588000 -2.413000 0.000000
vt 5.588000 -2.413000 0.000000
vt -5.588000 2.413000 0.000000
vt 5.588000 2.413000 0.000000
vt -5.588000 3.175000 0.000000
vt 5.588000 3.175000 0.000000
vt 6.350000 -2.413000 0.000000
vt 6.350000 2.413000 0.000000
vt -6.350000 2.413000 0.000000
vt -6.350000 -2.413000 0.000000
vt 0.000000 1.270000 0.000000
vt 0.000000 0.000000 0.000000
vt 0.254000 1.270000 0.000000
vt 0.762000 0.000000 0.000000
vt 0.254000 1.524000 0.000000
vt 0.762000 3.810000 0.000000
vt 0.254000 3.810000 0.000000
vt 0.762000 0.000000 0.000000
vt 0.508000 1.270000 0.000000
vt 0.000000 0.000000 0.000000
vt 0.508000 1.524000 0.000000
vt 0.000000 3.810000 0.000000
vt 0.508000 3.810000 0.000000
vt 0.762000 1.270000 0.000000
vt 0.000000 1.270000 0.000000
vt 0.000000 0.000000 0.000000
vt 0.254000 1.270000 0.000000
vt 0.762000 0.000000 0.000000
vt 0.254000 1.524000 0.000000
vt 0.762000 3.810000 0.000000
vt 0.254000 3.810000 0.000000
vt 0.762000 -0.000000 0.000000
vt 0.508000 1.270000 0.000000
vt 0.000000 0.000000 0.000000
vt 0.508000 1.524000 0.000000
vt 0.000000 3.810000 0.000000
vt 0.508000 3.810000 0.000000
vt 0.762000 1.270000 0.000000
vt 0.000000 1.270000 0.000000
vt 0.000000 0.000000 0.000000
vt 0.254000 1.270000 0.000000
vt 0.762000 0.000000 0.000000
vt 0.254000 1.524000 0.000000
vt 0.762000 3.810000 0.000000
vt 0.254000 3.810000 0.000000
vt 0.762000 0.000000 0.000000
vt 0.508000 1.270000 0.000000
vt 0.000000 0.000000 0.000000
vt 0.508000 1.524000 0.000000
vt 0.000000 3.810000 0.000000
vt 0.508000 3.810000 0.000000
vt 0.762000 1.270000 0.000000
vt 0.000000 4.445000 0.000000
vt 0.000000 0.000000 0.000000
vt 0.762000 0.635000 0.000000
vt 12.700000 0.000000 0.000000
vt 11.938000 0.635000 0.000000
vt 12.700000 4.445000 0.000000
vt 11.938000 4.445000 0.000000
vt 0.762000 4.445000 0.000000
vt 6.350000 0.000000 0.000000
vt 5.588000 0.635000 0.000000
vt 0.000000 0.000000 0.000000
vt 0.762000 0.635000 0.000000
vt -0.000000 4.445000 0.000000
vt 0.762000 4.445000 0.000000
vt 6.350000 4.445000 0.000000
vt 5.588000 4.445000 0.000000
vt 12.700000 0.000000 0.000000
vt 11.938000 0.635000 0.000000
vt 0.000000 0.000000 0.000000
vt 0.762000 0.635000 0.000000
vt -0.000000 4.445000 0.000000
vt 0.762000 4.445000 0.000000
vt 12.700000 4.445000 0.000000
vt 11.938000 4.445000 0.000000
vt 0.000000 4.445000 0.000000
vt 0.000000 0.000000 0.000000
vt 0.762000 0.635000 0.000000
vt 6.350000 0.000000 0.000000
vt 5.588000 0.635000 0.000000
vt 6.350000 4.445000 0.000000
vt 5.588000 4.445000 0.000000
vt 0.762000 4.445000 0.000000
vt -3.175000 -6.350000 0.000000
vt 3.175000 -6.350000 0.000000
vt -3.175000 6.350000 0.000000
vt 3.175000 6.350000 0.000000
vn -2.540000 -0.000000 0.000000
vn -2.540000 -0.000000 0.000000
vn -2.540000 -0.000000 0.000000
vn -2.540000 -0.000000 0.000000
vn 0.000000 0.000000 2.540000
vn 0.000000 0.000000 2.540000
vn 0.000000 0.000000 2.540000
vn 0.000000 0.000000 2.540000
vn 0.000000 -2.540000 0.000000
vn 0.000000 -2.540000 0.000000
vn 0.000000 -2.540000 0.000000
vn 0.000000 -2.540000 0.000000
vn 0.000000 -2.540000 0.000000
vn 0.000000 -2.540000 0.000000
vn 2.540000 0.000000 0.000000
vn 2.540000 0.000000 0.000000
vn 2.540000 0.000000 0.000000
vn 2.540000 0.000000 0.000000
vn 0.000000 0.000000 -2.540000
vn 0.000000 0.000000 -2.540000
vn 0.000000 0.000000 -2.540000
vn 0.000000 0.000000 -2.540000
vn 0.000000 -2.540000 0.000000
vn 0.000000 -2.540000 0.000000
vn 0.000000 -2.540000 0.000000
vn 0.000000 -2.540000 0.000000
vn 0.000000 -2.540000 0.000000
vn 0.000000 -2.540000 0.000000
vn 0.000000 0.000000 2.540000
vn 0.000000 0.000000 2.540000
vn 0.000000 0.000000 2.540000
vn 0.000000 0.000000 2.540000
vn 2.540000 0.000000 0.000000
vn 2.540000 0.000000 0.000000
vn 2.540000 0.000000 0.000000
vn 2.540000 0.000000 0.000000
vn 0.000000 -2.540000 0.000000
vn 0.000000 -2.540000 0.000000
vn 0.000000 -2.540000 0.000000
vn 0.000000 -2.540000 0.000000
vn 0.000000 -2.540000 0.000000
vn 0.000000 -2.540000 0.000000
vn 0.000000 0.000000 -2.540000
vn 0.000000 0.000000 -2.540000
vn 0.000000 0.000000 -2.540000
vn 0.000000 0.000000 -2.540000
vn -2.540000 -0.000000 0.000000
vn -2.540000 -0.000000 0.000000
vn -2.540000 -0.000000 0.000000
vn -2.540000 -0.000000 0.000000
vn 0.000000 -2.540000 0.000000
vn 0.000000 -2.540000 0.000000
vn 0.000000 -2.540000 0.000000
vn 0.000000 -2.540000 0.000000
vn 0.000000 -2.540000 0.000000
vn 0.000000 -2.540000 0.000000
vn 0.000000 0.000000 2.540000
vn 0.000000 0.000000 2.540000
vn 0.000000 0.000000 2.540000
vn 0.000000 0.000000 2.540000
vn 2.540000 0.000000 0.000000
vn 2.540000 0.000000 0.000000
vn 2.540000 0.000000 0.000000
vn 2.540000 0.000000 0.000000
vn -0.000000 2.540000 -0.000000
vn -0.000000 2.540000 -0.000000
vn -0.000000 2.540000 -0.000000
vn -0.000000 2.540000 -0.000000
vn -0.000000 2.540000 -0.000000
vn -0.000000 2.540000 -0.000000
vn -0.000000 2.540000 -0.000000
vn -0.000000 2.540000 -0.000000
vn -0.000000 2.540000 -0.000000
vn -0.000000 2.540000 -0.000000
vn -0.000000 2.540000 -0.000000
vn -0.000000 2.540000 -0.000000
vn 0.000000 0.000000 -2.540000
vn 0.000000 0.000000 -2.540000
vn 0.000000 0.000000 -2.540000
vn 0.000000 0.000000 -2.540000
vn -2.540000 -0.000000 0.000000
vn -2.540000 -0.000000 0.000000
vn -2.540000 -0.000000 0.000000
vn -2.540000 -0.000000 0.000000
vn 0.000000 -2.540000 0.000000
vn 0.000000 -2.540000 0.000000
vn 0.000000 -2.540000 0.000000
vn 0.000000 -2.540000 0.000000
vn 0.000000 -2.540000 0.000000
vn 0.000000 -2.540000 0.000000
vn 0.000000 -2.540000 0.000000
vn 0.000000 -2.540000 0.000000
vn 0.000000 -2.540000 0.000000
vn 0.000000 -2.540000 0.000000
vn 0.000000 -2.540000 0.000000
vn 0.000000 -2.540000 0.000000
vn -2.540000 -0.000000 0.000000
vn -2.540000 -0.000000 0.000000
vn -2.540000 -0.000000 0.000000
vn -2.540000 -0.000000 0.000000
vn -2.540000 -0.000000 0.000000
vn -2.540000 -0.000000 0.000000
vn -2.540000 -0.000000 0.000000
vn 0.000000 0.000000 -2.540000
vn 0.000000 0.000000 -2.540000
vn 0.000000 0.000000 -2.540000
vn 0.000000 0.000000 -2.540000
vn 0.000000 0.000000 -2.540000
vn 0.000000 0.000000 -2.540000
vn 0.000000 0.000000 -2.540000
vn 0.000000 -2.540000 0.000000
vn 0.000000 -2.540000 0.000000
vn 0.000000 -2.540000 0.000000
vn 0.000000 -2.540000 0.000000
vn 0.000000 -2.540000 0.000000
vn 0.000000 -2.540000 0.000000
vn 0.000000 -2.540000 0.000000
vn 0.000000 -2.540000 0.000000
vn 0.000000 -2.540000 0.000000
vn 0.000000 -2.540000 0.000000
vn 0.000000 -2.540000 0.000000
vn 0.000000 -2.540000 0.000000
vn -2.540000 -0.000000 0.000000
vn -2.540000 -0.000000 0.000000
vn -2.540000 -0.000000 0.000000
vn -2.540000 -0.000000 0.000000
vn -2.540000 -0.000000 0.000000
vn -2.540000 -0.000000 0.000000
vn -2.540000 -0.000000 0.000000
vn 0.000000 0.000000 2.540000
vn 0.000000 0.000000 2.540000
vn 0.000000 0.000000 2.540000
vn 0.000000 0.000000 2.540000
vn 0.000000 0.000000 2.540000
vn 0.000000 0.000000 2.540000
vn 0.000000 0.000000 2.540000
vn 2.540000 0.000000 0.000000
vn 2.540000 0.000000 0.000000
vn 2.540000 0.000000 0.000000
vn 2.540000 0.000000 0.000000
vn 2.540000 0.000000 0.000000
vn 2.540000 0.000000 0.000000
vn 2.540000 0.000000 0.000000
vn 0.000000 0.000000 -2.540000
vn 0.000000 0.000000 -2.540000
vn 0.000000 0.000000 -2.540000
vn 0.000000 0.000000 -2.540000
vn 0.000000 0.000000 -2.540000
vn 0.000000 0.000000 -2.540000
vn 0.000000 0.000000 -2.540000
vn 0.000000 0.000000 2.540000
vn 0.000000 0.000000 2.540000
vn 0.000000 0.000000 2.540000
vn 0.000000 0.000000 2.540000
vn 0.000000 0.000000 2.540000
vn 0.000000 0.000000 2.540000
vn 0.000000 0.000000 2.540000
vn 2.540000 0.000000 0.000000
vn 2.540000 0.000000 0.000000
vn 2.540000 0.000000 0.000000
vn 2.540000 0.000000 0.000000
vn 2.540000 0.000000 0.000000
vn 2.540000 0.000000 0.000000
vn 2.540000 0.000000 0.000000
vn 2.540000 0.000000 0.000000
vn 2.540000 0.000000 0.000000
vn 2.540000 0.000000 0.000000
vn 2.540000 0.000000 0.000000
vn 2.540000 0.000000 0.000000
vn 2.540000 0.000000 0.000000
vn 2.540000 0.000000 0.000000
vn 2.540000 0.000000 0.000000
vn 0.000000 0.000000 -2.540000
vn 0.000000 0.000000 -2.540000
vn 0.000000 0.000000 -2.540000
vn 0.000000 0.000000 -2.540000
vn 0.000000 0.000000 -2.540000
vn 0.000000 0.000000 -2.540000
vn 0.000000 0.000000 -2.540000
vn 0.000000 0.000000 -2.540000
vn -2.540000 -0.000000 0.000000
vn -2.540000 -0.000000 0.000000
vn -2.540000 -0.000000 0.000000
vn -2.540000 -0.000000 0.000000
vn -2.540000 -0.000000 0.000000
vn -2.540000 -0.000000 0.000000
vn -2.540000 -0.000000 0.000000
vn -2.540000 -0.000000 0.000000
vn 0.000000 0.000000 2.540000
vn 0.000000 0.000000 2.540000
vn 0.000000 0.000000 2.540000
vn 0.000000 0.000000 2.540000
vn 0.000000 0.000000 2.540000
vn 0.000000 0.000000 2.540000
vn 0.000000 0.000000 2.540000
vn 0.000000 0.000000 2.540000
vn -0.000000 2.540000 -0.000000
vn -0.000000 2.540000 -0.000000
vn -0.000000 2.540000 -0.000000
vn -0.000000 2.540000 -0.000000
usemtl ABS_(White)
f 1/1/1 2/2/2 4/3/3
f 4/3/3 2/2/2 3/4/4
f 2/5/5 5/6/6 3/7/7
f 3/7/7 5/6/6 6/8/8
f 6/9/9 7/10/10 3/11/11
f 3/11/11 7/10/10 8/12/12
f 3/11/11 8/12/12 9/13/13
f 9/13/13 4/14/14 3/11/11
f 10/15/15 11/16/16 13/17/17
f 13/17/17 11/16/16 12/18/18
f 11/19/19 14/20/20 12/21/21
f 12/21/21 14/20/20 15/22/22
f 15/23/23 16/24/24 12/25/25
f 12/25/25 16/24/24 17/26/26
f 12/25/25 17/26/26 18/27/27
f 18/27/27 13/28/28 12/25/25
f 19/29/29 20/30/30 22/31/31
f 22/31/31 20/30/30 21/32/32
f 20/33/33 23/34/34 21/35/35
f 21/35/35 23/34/34 24/36/36
f 24/37/37 25/38/38 21/39/39
f 21/39/39 25/38/38 26/40/40
f 21/39/39 26/40/40 27/41/41
f 27/41/41 22/42/42 21/39/39
f 28/43/43 29/44/44 31/45/45
f 31/45/45 29/44/44 30/46/46
f 29/47/47 32/48/48 30/49/49
f 30/49/49 32/48/48 33/50/50
f 31/51/51 30/52/52 36/53/53
f 36/53/53 30/52/52 35/54/54
f 35/54/54 30/52/52 34/55/55
f 34/55/55 30/52/52 33/56/56
f 14/57/57 28/58/58 37/59/59
f 37/59/59 28/58/58 38/60/60
f 39/61/61 40/62/62 1/63/63
f 1/63/63 40/62/62 32/64/64
f 37/65/65 38/66/66 48/67/67
f 48/67/67 38/66/66 41/68/68
f 48/67/67 41/68/68 45/69/69
f 45/69/69 41/68/68 42/70/70
f 45/69/69 42/70/70 44/71/71
f 44/71/71 42/70/70 43/72/72
f 41/68/68 40/73/73 42/70/70
f 42/70/70 40/73/73 39/74/74
f 45/69/69 46/75/75 48/67/67
f 48/67/67 46/75/75 47/76/76
f 5/77/77 19/78/78 43/79/79
f 43/79/79 19/78/78 44/80/80
f 47/81/81 46/82/82 10/83/83
f 10/83/83 46/82/82 23/84/84
f 29/85/85 28/86/86 32/87/87
f 32/87/87 28/86/86 1/88/88
f 1/88/88 28/86/86 5/89/89
f 1/88/88 5/89/89 2/90/90
f 5/89/89 28/86/86 19/91/91
f 19/91/91 28/86/86 14/92/92
f 19/91/91 14/92/92 23/93/93
f 23/93/93 14/92/92 10/94/94
f 10/94/94 14/92/92 11/95/95
f 23/93/93 20/96/96 19/91/91
f 50/97/97 38/98/98 49/99/99
f 49/99/99 38/98/98 28/100/100
f 49/99/99 28/100/100 36/101/101
f 36/101/101 28/100/100 31/102/102
f 50/97/97 41/103/103 38/98/98
f 41/104/104 50/105/105 40/106/106
f 40/106/106 50/105/105 51/107/107
f 40/106/106 51/107/107 32/108/108
f 32/108/108 51/107/107 34/109/109
f 32/108/108 34/109/109 33/110/110
f 60/111/111 51/112/112 59/113/113
f 59/113/113 51/112/112 50/114/114
f 59/113/113 50/114/114 56/115/115
f 56/115/115 50/114/114 53/116/116
f 56/115/115 53/116/116 55/117/117
f 55/117/117 53/116/116 54/118/118
f 50/114/114 49/119/119 53/116/116
f 53/116/116 49/119/119 52/120/120
f 56/115/115 57/121/121 59/113/113
f 59/113/113 57/121/121 58/122/122
f 42/123/123 59/124/124 43/125/125
f 43/125/125 59/124/124 58/126/126
f 43/125/125 58/126/126 5/127/127
f 5/127/127 58/126/126 7/128/128
f 5/127/127 7/128/128 6/129/129
f 59/130/130 39/131/131 60/132/132
f 60/132/132 39/131/131 1/133/133
f 60/132/132 1/133/133 9/134/134
f 9/134/134 1/133/133 4/135/135
f 59/130/130 42/136/136 39/131/131
f 48/137/137 53/138/138 37/139/139
f 37/139/139 53/138/138 52/140/140
f 37/139/139 52/140/140 14/141/141
f 14/141/141 52/140/140 16/142/142
f 14/141/141 16/142/142 15/143/143
f 53/144/144 47/145/145 54/146/146
f 54/146/146 47/145/145 10/147/147
f 54/146/146 10/147/147 18/148/148
f 18/148/148 10/147/147 13/149/149
f 53/144/144 48/150/150 47/145/145
f 45/151/151 56/152/152 46/153/153
f 46/153/153 56/152/152 55/154/154
f 46/153/153 55/154/154 23/155/155
f 23/155/155 55/154/154 25/156/156
f 23/155/155 25/156/156 24/157/157
f 56/158/158 44/159/159 57/160/160
f 57/160/160 44/159/159 19/161/161
f 57/160/160 19/161/161 27/162/162
f 27/162/162 19/161/161 22/163/163
f 56/158/158 45/164/164 44/159/159
f 8/165/165 61/166/166 60/167/167
f 60/167/167 61/166/166 62/168/168
f 60/167/167 62/168/168 51/169/169
f 51/169/169 62/168/168 35/170/170
f 51/169/169 35/170/170 34/171/171
f 60/167/167 9/172/172 8/165/165
f 61/173/173 58/174/174 63/175/175
f 63/175/175 58/174/174 57/176/176
f 63/175/175 57/176/176 26/177/177
f 26/177/177 57/176/176 27/178/178
f 61/173/173 8/179/179 58/174/174
f 58/174/174 8/179/179 7/180/180
f 63/181/181 55/182/182 64/183/183
f 64/183/183 55/182/182 54/184/184
f 64/183/183 54/184/184 17/185/185
f 17/185/185 54/184/184 18/186/186
f 63/181/181 26/187/187 55/182/182
f 55/182/182 26/187/187 25/188/188
f 35/189/189 62/190/190 49/191/191
f 49/191/191 62/190/190 64/192/192
f 49/191/191 64/192/192 52/193/193
f 52/193/193 64/192/192 17/194/194
f 52/193/193 17/194/194 16/195/195
f 49/191/191 36/196/196 35/189/189
f 64/197/197 62/198/198 63/199/199
f 63/199/199 62/198/198 61/200/200
# 64 vertices
# 200 texture params
# 200 normals
# 136 facets

# 1 groups
