# WaveFront *.obj file (generated by Autodesk ATF)

mtllib b8796f1a-f518-473f-af8a-1ad4a265fcbd.mtl

g Body1

v 0.500000 0.900000 0.151542
v 0.500000 0.900000 -0.400885
v 0.307554 0.900000 -0.400885
v 0.307554 0.900000 0.151542
v 0.307554 0.000000 0.151542
v 0.500000 0.000000 0.151542
v 0.307554 0.250000 0.000000
v 0.307554 0.000000 0.000000
v 0.307554 0.000000 -0.400885
v 0.307554 0.000000 -0.250000
v 0.307554 0.250000 -0.250000
v 0.500000 0.000000 -0.400885
v 0.000000 0.000000 0.000000
v 0.000000 0.250000 0.000000
v -0.000000 0.000000 -0.250000
v 0.000000 0.250000 -0.250000
vt 0.701581 0.244407 0.000000
vt -0.701581 0.244407 0.000000
vt 0.701581 -0.244407 0.000000
vt -0.701581 -0.244407 0.000000
vt 0.000000 0.000000 0.000000
vt 0.488813 0.000000 0.000000
vt 0.000000 2.286000 0.000000
vt 0.488813 2.286000 0.000000
vt 1.018247 0.000000 0.000000
vt 1.403163 0.000000 0.000000
vt 1.018247 0.635000 0.000000
vt 1.403163 2.286000 0.000000
vt 0.000000 2.286000 0.000000
vt 0.383247 0.635000 0.000000
vt 0.000000 0.000000 0.000000
vt 0.383247 0.000000 0.000000
vt 0.000000 0.000000 0.000000
vt 0.488813 0.000000 0.000000
vt 0.000000 2.286000 0.000000
vt 0.488813 2.286000 0.000000
vt 0.000000 0.000000 0.000000
vt 1.403163 0.000000 0.000000
vt 0.000000 2.286000 0.000000
vt 1.403163 2.286000 0.000000
vt 0.000000 0.000000 0.000000
vt 0.781187 0.000000 0.000000
vt 0.000000 0.635000 0.000000
vt 0.781187 0.635000 0.000000
vt 0.000000 0.000000 0.000000
vt 0.635000 0.000000 0.000000
vt 0.000000 0.635000 0.000000
vt 0.635000 0.635000 0.000000
vt 0.000000 0.000000 0.000000
vt 0.781187 0.000000 0.000000
vt 0.000000 0.635000 0.000000
vt 0.781187 0.635000 0.000000
vt -0.317500 -0.390593 0.000000
vt 0.317500 -0.390593 0.000000
vt -0.317500 0.390593 0.000000
vt 0.317500 0.390593 0.000000
vt 0.390593 0.317500 0.000000
vt -0.390593 0.317500 0.000000
vt 0.390593 -0.317500 0.000000
vt -0.390593 -0.317500 0.000000
vt -0.879407 0.700747 0.000000
vt -0.879407 -0.702416 0.000000
vt -0.390593 0.700747 0.000000
vt -0.390593 -0.702416 0.000000
vn 0.000000 2.540000 0.000000
vn 0.000000 2.540000 0.000000
vn 0.000000 2.540000 0.000000
vn 0.000000 2.540000 0.000000
vn -0.000000 0.000000 2.540000
vn -0.000000 0.000000 2.540000
vn -0.000000 0.000000 2.540000
vn -0.000000 0.000000 2.540000
vn -2.540000 0.000000 0.000000
vn -2.540000 0.000000 0.000000
vn -2.540000 0.000000 0.000000
vn -2.540000 0.000000 0.000000
vn -2.540000 0.000000 0.000000
vn -2.540000 0.000000 0.000000
vn -2.540000 0.000000 0.000000
vn -2.540000 0.000000 0.000000
vn 0.000000 0.000000 -2.540000
vn 0.000000 0.000000 -2.540000
vn 0.000000 0.000000 -2.540000
vn 0.000000 0.000000 -2.540000
vn 2.540000 -0.000000 0.000000
vn 2.540000 -0.000000 0.000000
vn 2.540000 -0.000000 0.000000
vn 2.540000 -0.000000 0.000000
vn 0.000000 0.000000 2.540000
vn 0.000000 0.000000 2.540000
vn 0.000000 0.000000 2.540000
vn 0.000000 0.000000 2.540000
vn -2.540000 0.000000 0.000000
vn -2.540000 0.000000 0.000000
vn -2.540000 0.000000 0.000000
vn -2.540000 0.000000 0.000000
vn 0.000000 0.000000 -2.540000
vn 0.000000 0.000000 -2.540000
vn 0.000000 0.000000 -2.540000
vn 0.000000 0.000000 -2.540000
vn 0.000000 2.540000 0.000000
vn 0.000000 2.540000 0.000000
vn 0.000000 2.540000 0.000000
vn 0.000000 2.540000 0.000000
vn 0.000000 -2.540000 0.000000
vn 0.000000 -2.540000 0.000000
vn 0.000000 -2.540000 0.000000
vn 0.000000 -2.540000 0.000000
vn 0.000000 -2.540000 0.000000
vn 0.000000 -2.540000 0.000000
vn 0.000000 -2.540000 0.000000
vn 0.000000 -2.540000 0.000000
usemtl ABS_(White)
f 1/1/1 2/2/2 4/3/3
f 4/3/3 2/2/2 3/4/4
f 5/5/5 6/6/6 4/7/7
f 4/7/7 6/6/6 1/8/8
f 8/9/9 5/10/10 7/11/11
f 7/11/11 5/10/10 4/12/12
f 7/11/11 4/12/12 3/13/13
f 7/11/11 3/13/13 11/14/14
f 11/14/14 3/13/13 9/15/15
f 11/14/14 9/15/15 10/16/16
f 12/17/17 9/18/18 2/19/19
f 2/19/19 9/18/18 3/20/20
f 6/21/21 12/22/22 1/23/23
f 1/23/23 12/22/22 2/24/24
f 13/25/25 8/26/26 14/27/27
f 14/27/27 8/26/26 7/28/28
f 15/29/29 13/30/30 16/31/31
f 16/31/31 13/30/30 14/32/32
f 10/33/33 15/34/34 11/35/35
f 11/35/35 15/34/34 16/36/36
f 16/37/37 14/38/38 11/39/39
f 11/39/39 14/38/38 7/40/40
f 15/41/41 10/42/42 13/43/43
f 13/43/43 10/42/42 8/44/44
f 8/44/44 10/42/42 12/45/45
f 8/44/44 12/45/45 6/46/46
f 10/42/42 9/47/47 12/45/45
f 6/46/46 5/48/48 8/44/44
# 16 vertices
# 48 texture params
# 48 normals
# 28 facets

# 1 groups
